<?xml version="1.0" encoding="UTF-8" standalone="no"?>
<svg
   width="320"
   height="132"
   viewBox="0 0 320 132"
   fill="none"
   version="1.1"
   id="svg37"
   sodipodi:docname="Blackglass logo.svg"
   inkscape:export-filename="Blackglass logo.png"
   inkscape:export-xdpi="181.02856"
   inkscape:export-ydpi="181.02856"
   inkscape:version="1.3-alpha (95f74fb, 2023-03-31)"
   xmlns:inkscape="http://www.inkscape.org/namespaces/inkscape"
   xmlns:sodipodi="http://sodipodi.sourceforge.net/DTD/sodipodi-0.dtd"
   xmlns="http://www.w3.org/2000/svg"
   xmlns:svg="http://www.w3.org/2000/svg">
  <defs
     id="defs37" />
  <sodipodi:namedview
     id="namedview37"
     pagecolor="#ffffff"
     bordercolor="#000000"
     borderopacity="0.25"
     inkscape:showpageshadow="2"
     inkscape:pageopacity="0.0"
     inkscape:pagecheckerboard="0"
     inkscape:deskcolor="#d1d1d1"
     inkscape:zoom="2.0243691"
     inkscape:cx="152.88714"
     inkscape:cy="62.241614"
     inkscape:window-width="1312"
     inkscape:window-height="703"
     inkscape:window-x="0"
     inkscape:window-y="31"
     inkscape:window-maximized="0"
     inkscape:current-layer="svg37" />
  <g
     id="g37"
     transform="translate(4,32)">
    <path
       d="m 41.4388,32.5403 c 0.004,12.2253 -0.0016,17.7869 -0.018,17.8174 L 32.2244,56.1788 0.0139218,56.1655 0,42.006 C 1.18633,40.8484 40.1003,1.17361 41.2477,3.39073e-4 41.3512,-0.10551 25.7918,24.6062 25.5934,24.9606 L 41.4331,14.7673 Z"
       fill="#600270"
       id="path1" />
    <path
       d="m 41.4388,32.5403 c 0.004,12.2253 -0.0016,17.7869 -0.018,17.8174 L 32.2244,56.1788 0.0139218,56.1655 0,42.006 C 1.18633,40.8484 40.1003,1.17361 41.2477,3.39073e-4 41.3512,-0.10551 25.7918,24.6062 25.5934,24.9606 L 41.4331,14.7673 Z"
       fill="#000000"
       fill-opacity="0.2"
       id="path2" />
    <path
       d="m 41.4388,32.5403 c 0.004,12.2253 -0.0016,17.7869 -0.018,17.8174 L 32.2244,56.1788 0.0139218,56.1655 0,42.006 C 1.18633,40.8484 40.1003,1.17361 41.2477,3.39073e-4 41.3512,-0.10551 25.7918,24.6062 25.5934,24.9606 L 41.4331,14.7673 Z"
       fill="#0a0a0a"
       id="path3" />
    <path
       d="M 0.015,36.7699 17.7865,14.7787 0,14.7558 0.0141055,25.8802 7.38211,21.1744 0,31.6472 Z"
       fill="#600270"
       id="path4" />
    <path
       d="M 0.015,36.7699 17.7865,14.7787 0,14.7558 0.0141055,25.8802 7.38211,21.1744 0,31.6472 Z"
       fill="#000000"
       fill-opacity="0.2"
       id="path5" />
    <path
       d="M 0.015,36.7699 17.7865,14.7787 0,14.7558 0.0141055,25.8802 7.38211,21.1744 0,31.6472 Z"
       fill="#0a0a0a"
       id="path6" />
    <path
       d="m 60.853,56.1789 v -1.2188 c 0.9167,-0.5359 1.6778,-1.0718 2.2831,-1.6077 0.1038,-0.8471 0.173,-1.8843 0.2076,-3.1117 0.0692,-2.5239 0.1038,-7.1137 0.1038,-13.7693 0,-1.7806 -0.0433,-4.5552 -0.1297,-8.3238 -0.0519,-2.9043 -0.1471,-4.5638 -0.2854,-4.9787 -0.0865,-0.2593 -0.2162,-0.4409 -0.3892,-0.5446 -0.3632,-0.242 -1.6604,-0.4322 -3.8917,-0.5705 v -2.1522 c 0.3805,0 0.7784,0.0086 1.1935,0.0259 l 3.5803,0.1037 c 1.1762,0.0173 2.6377,0.026 4.3846,0.026 1.7296,0 3.0874,-0.0173 4.0733,-0.0519 2.4907,-0.1037 4.1165,-0.1556 4.8776,-0.1556 2.8539,0 5.0505,0.2939 6.5899,0.8817 1.5566,0.5877 2.6895,1.4434 3.3987,2.5671 0.7264,1.1064 1.0896,2.3511 1.0896,3.7341 0,1.4867 -0.4151,2.8696 -1.2453,4.1489 -0.8129,1.2793 -1.8593,2.2733 -3.1393,2.9821 -0.761,0.4321 -2.456,1.0113 -5.0851,1.7373 3.1479,0.3803 5.3359,0.8817 6.564,1.504 1.2453,0.6224 2.2398,1.5991 2.9836,2.9302 0.7437,1.3138 1.1156,2.7832 1.1156,4.4082 0,1.7115 -0.3805,3.2673 -1.1416,4.6676 -0.761,1.383 -1.7469,2.5672 -2.9576,3.5525 -1.1935,0.9854 -2.5685,1.772 -4.1252,2.3597 -1.5567,0.5705 -3.5025,0.8558 -5.8375,0.8558 l -8.7173,-0.1556 c -1.401,0 -3.2345,0.0518 -5.5003,0.1556 z m 9.833,-21.3152 1.5048,0.0259 c 1.1761,0 2.2658,-0.0951 3.269,-0.2852 1.0031,-0.1902 1.8161,-0.5186 2.4387,-0.9854 0.6227,-0.484 1.1416,-1.1928 1.5567,-2.1263 0.4324,-0.9508 0.6486,-2.0399 0.6486,-3.2673 0,-1.2447 -0.2421,-2.2992 -0.7264,-3.1636 -0.4843,-0.8816 -1.1156,-1.504 -1.894,-1.867 -0.7783,-0.3803 -1.9458,-0.5705 -3.5025,-0.5705 -1.1242,0 -2.1447,0.0692 -3.0614,0.2075 -0.1038,1.2446 -0.1643,2.6795 -0.1816,4.3045 l -0.0519,4.0193 z m 0.1038,18.4109 c 0.5707,0.121 1.6431,0.1815 3.2171,0.1815 2.1447,0 3.8743,-0.7001 5.1889,-2.1004 1.3318,-1.4175 1.9977,-3.4401 1.9977,-6.0678 0,-1.867 -0.3459,-3.3797 -1.0378,-4.5379 -0.6918,-1.1583 -1.6086,-1.9708 -2.7501,-2.4375 -1.1416,-0.4841 -2.7155,-0.7261 -4.7219,-0.7261 -0.7091,0 -1.3751,0.0346 -1.9977,0.1038 v 11.8244 l 0.0519,3.0858 c 0,0.0864 0.0173,0.3112 0.0519,0.6742 z"
       fill="#000000"
       id="path7" />
    <path
       d="m 60.853,56.1789 v -1.2188 c 0.9167,-0.5359 1.6778,-1.0718 2.2831,-1.6077 0.1038,-0.8471 0.173,-1.8843 0.2076,-3.1117 0.0692,-2.5239 0.1038,-7.1137 0.1038,-13.7693 0,-1.7806 -0.0433,-4.5552 -0.1297,-8.3238 -0.0519,-2.9043 -0.1471,-4.5638 -0.2854,-4.9787 -0.0865,-0.2593 -0.2162,-0.4409 -0.3892,-0.5446 -0.3632,-0.242 -1.6604,-0.4322 -3.8917,-0.5705 v -2.1522 c 0.3805,0 0.7784,0.0086 1.1935,0.0259 l 3.5803,0.1037 c 1.1762,0.0173 2.6377,0.026 4.3846,0.026 1.7296,0 3.0874,-0.0173 4.0733,-0.0519 2.4907,-0.1037 4.1165,-0.1556 4.8776,-0.1556 2.8539,0 5.0505,0.2939 6.5899,0.8817 1.5566,0.5877 2.6895,1.4434 3.3987,2.5671 0.7264,1.1064 1.0896,2.3511 1.0896,3.7341 0,1.4867 -0.4151,2.8696 -1.2453,4.1489 -0.8129,1.2793 -1.8593,2.2733 -3.1393,2.9821 -0.761,0.4321 -2.456,1.0113 -5.0851,1.7373 3.1479,0.3803 5.3359,0.8817 6.564,1.504 1.2453,0.6224 2.2398,1.5991 2.9836,2.9302 0.7437,1.3138 1.1156,2.7832 1.1156,4.4082 0,1.7115 -0.3805,3.2673 -1.1416,4.6676 -0.761,1.383 -1.7469,2.5672 -2.9576,3.5525 -1.1935,0.9854 -2.5685,1.772 -4.1252,2.3597 -1.5567,0.5705 -3.5025,0.8558 -5.8375,0.8558 l -8.7173,-0.1556 c -1.401,0 -3.2345,0.0518 -5.5003,0.1556 z m 9.833,-21.3152 1.5048,0.0259 c 1.1761,0 2.2658,-0.0951 3.269,-0.2852 1.0031,-0.1902 1.8161,-0.5186 2.4387,-0.9854 0.6227,-0.484 1.1416,-1.1928 1.5567,-2.1263 0.4324,-0.9508 0.6486,-2.0399 0.6486,-3.2673 0,-1.2447 -0.2421,-2.2992 -0.7264,-3.1636 -0.4843,-0.8816 -1.1156,-1.504 -1.894,-1.867 -0.7783,-0.3803 -1.9458,-0.5705 -3.5025,-0.5705 -1.1242,0 -2.1447,0.0692 -3.0614,0.2075 -0.1038,1.2446 -0.1643,2.6795 -0.1816,4.3045 l -0.0519,4.0193 z m 0.1038,18.4109 c 0.5707,0.121 1.6431,0.1815 3.2171,0.1815 2.1447,0 3.8743,-0.7001 5.1889,-2.1004 1.3318,-1.4175 1.9977,-3.4401 1.9977,-6.0678 0,-1.867 -0.3459,-3.3797 -1.0378,-4.5379 -0.6918,-1.1583 -1.6086,-1.9708 -2.7501,-2.4375 -1.1416,-0.4841 -2.7155,-0.7261 -4.7219,-0.7261 -0.7091,0 -1.3751,0.0346 -1.9977,0.1038 v 11.8244 l 0.0519,3.0858 c 0,0.0864 0.0173,0.3112 0.0519,0.6742 z"
       fill="#faf5f5"
       id="path8" />
    <path
       d="m 60.853,56.1789 v -1.2188 c 0.9167,-0.5359 1.6778,-1.0718 2.2831,-1.6077 0.1038,-0.8471 0.173,-1.8843 0.2076,-3.1117 0.0692,-2.5239 0.1038,-7.1137 0.1038,-13.7693 0,-1.7806 -0.0433,-4.5552 -0.1297,-8.3238 -0.0519,-2.9043 -0.1471,-4.5638 -0.2854,-4.9787 -0.0865,-0.2593 -0.2162,-0.4409 -0.3892,-0.5446 -0.3632,-0.242 -1.6604,-0.4322 -3.8917,-0.5705 v -2.1522 c 0.3805,0 0.7784,0.0086 1.1935,0.0259 l 3.5803,0.1037 c 1.1762,0.0173 2.6377,0.026 4.3846,0.026 1.7296,0 3.0874,-0.0173 4.0733,-0.0519 2.4907,-0.1037 4.1165,-0.1556 4.8776,-0.1556 2.8539,0 5.0505,0.2939 6.5899,0.8817 1.5566,0.5877 2.6895,1.4434 3.3987,2.5671 0.7264,1.1064 1.0896,2.3511 1.0896,3.7341 0,1.4867 -0.4151,2.8696 -1.2453,4.1489 -0.8129,1.2793 -1.8593,2.2733 -3.1393,2.9821 -0.761,0.4321 -2.456,1.0113 -5.0851,1.7373 3.1479,0.3803 5.3359,0.8817 6.564,1.504 1.2453,0.6224 2.2398,1.5991 2.9836,2.9302 0.7437,1.3138 1.1156,2.7832 1.1156,4.4082 0,1.7115 -0.3805,3.2673 -1.1416,4.6676 -0.761,1.383 -1.7469,2.5672 -2.9576,3.5525 -1.1935,0.9854 -2.5685,1.772 -4.1252,2.3597 -1.5567,0.5705 -3.5025,0.8558 -5.8375,0.8558 l -8.7173,-0.1556 c -1.401,0 -3.2345,0.0518 -5.5003,0.1556 z m 9.833,-21.3152 1.5048,0.0259 c 1.1761,0 2.2658,-0.0951 3.269,-0.2852 1.0031,-0.1902 1.8161,-0.5186 2.4387,-0.9854 0.6227,-0.484 1.1416,-1.1928 1.5567,-2.1263 0.4324,-0.9508 0.6486,-2.0399 0.6486,-3.2673 0,-1.2447 -0.2421,-2.2992 -0.7264,-3.1636 -0.4843,-0.8816 -1.1156,-1.504 -1.894,-1.867 -0.7783,-0.3803 -1.9458,-0.5705 -3.5025,-0.5705 -1.1242,0 -2.1447,0.0692 -3.0614,0.2075 -0.1038,1.2446 -0.1643,2.6795 -0.1816,4.3045 l -0.0519,4.0193 z m 0.1038,18.4109 c 0.5707,0.121 1.6431,0.1815 3.2171,0.1815 2.1447,0 3.8743,-0.7001 5.1889,-2.1004 1.3318,-1.4175 1.9977,-3.4401 1.9977,-6.0678 0,-1.867 -0.3459,-3.3797 -1.0378,-4.5379 -0.6918,-1.1583 -1.6086,-1.9708 -2.7501,-2.4375 -1.1416,-0.4841 -2.7155,-0.7261 -4.7219,-0.7261 -0.7091,0 -1.3751,0.0346 -1.9977,0.1038 v 11.8244 l 0.0519,3.0858 c 0,0.0864 0.0173,0.3112 0.0519,0.6742 z"
       fill="#090909"
       id="path9" />
    <path
       d="m 108.279,54.1044 v 2.0745 c -2.162,-0.1383 -4.419,-0.2075 -6.771,-0.2075 -2.3523,0 -4.9986,0.0692 -7.939,0.2075 v -2.0486 c 1.6431,-0.0518 2.6377,-0.121 2.9836,-0.2074 0.2594,-0.0692 0.4497,-0.1643 0.5708,-0.2853 0.1383,-0.1383 0.2335,-0.3457 0.2854,-0.6223 0.121,-0.5186 0.2075,-2.1523 0.2594,-4.9009 0.0519,-2.7487 0.0778,-5.1862 0.0778,-7.3125 v -8.5572 c 0,-2.7141 -0.0605,-5.1948 -0.1816,-7.4422 -0.0692,-1.2101 -0.1556,-1.9275 -0.2594,-2.1523 -0.0692,-0.121 -0.1643,-0.216 -0.2854,-0.2852 -0.2076,-0.1383 -0.5362,-0.242 -0.9859,-0.3112 -0.2594,-0.0345 -1.0378,-0.0778 -2.335,-0.1296 v -1.9189 c 2.1448,-0.2247 3.8571,-0.4668 5.137,-0.7261 1.2803,-0.2766 3.0013,-0.752 5.1633,-1.4262 l 0.544,0.3112 -0.207,5.238 c -0.087,2.9389 -0.138,6.5433 -0.156,10.8132 v 6.6383 c 0,2.5067 0.018,4.3823 0.052,5.627 0.069,3.0944 0.121,4.9701 0.156,5.627 0.034,0.6396 0.095,1.0459 0.181,1.2188 0.052,0.121 0.139,0.2247 0.26,0.3111 0.156,0.121 0.424,0.2161 0.804,0.2853 0.156,0.0345 1.038,0.0951 2.646,0.1815 z"
       fill="#000000"
       id="path10" />
    <path
       d="m 108.279,54.1044 v 2.0745 c -2.162,-0.1383 -4.419,-0.2075 -6.771,-0.2075 -2.3523,0 -4.9986,0.0692 -7.939,0.2075 v -2.0486 c 1.6431,-0.0518 2.6377,-0.121 2.9836,-0.2074 0.2594,-0.0692 0.4497,-0.1643 0.5708,-0.2853 0.1383,-0.1383 0.2335,-0.3457 0.2854,-0.6223 0.121,-0.5186 0.2075,-2.1523 0.2594,-4.9009 0.0519,-2.7487 0.0778,-5.1862 0.0778,-7.3125 v -8.5572 c 0,-2.7141 -0.0605,-5.1948 -0.1816,-7.4422 -0.0692,-1.2101 -0.1556,-1.9275 -0.2594,-2.1523 -0.0692,-0.121 -0.1643,-0.216 -0.2854,-0.2852 -0.2076,-0.1383 -0.5362,-0.242 -0.9859,-0.3112 -0.2594,-0.0345 -1.0378,-0.0778 -2.335,-0.1296 v -1.9189 c 2.1448,-0.2247 3.8571,-0.4668 5.137,-0.7261 1.2803,-0.2766 3.0013,-0.752 5.1633,-1.4262 l 0.544,0.3112 -0.207,5.238 c -0.087,2.9389 -0.138,6.5433 -0.156,10.8132 v 6.6383 c 0,2.5067 0.018,4.3823 0.052,5.627 0.069,3.0944 0.121,4.9701 0.156,5.627 0.034,0.6396 0.095,1.0459 0.181,1.2188 0.052,0.121 0.139,0.2247 0.26,0.3111 0.156,0.121 0.424,0.2161 0.804,0.2853 0.156,0.0345 1.038,0.0951 2.646,0.1815 z"
       fill="#faf5f5"
       id="path11" />
    <path
       d="m 108.279,54.1044 v 2.0745 c -2.162,-0.1383 -4.419,-0.2075 -6.771,-0.2075 -2.3523,0 -4.9986,0.0692 -7.939,0.2075 v -2.0486 c 1.6431,-0.0518 2.6377,-0.121 2.9836,-0.2074 0.2594,-0.0692 0.4497,-0.1643 0.5708,-0.2853 0.1383,-0.1383 0.2335,-0.3457 0.2854,-0.6223 0.121,-0.5186 0.2075,-2.1523 0.2594,-4.9009 0.0519,-2.7487 0.0778,-5.1862 0.0778,-7.3125 v -8.5572 c 0,-2.7141 -0.0605,-5.1948 -0.1816,-7.4422 -0.0692,-1.2101 -0.1556,-1.9275 -0.2594,-2.1523 -0.0692,-0.121 -0.1643,-0.216 -0.2854,-0.2852 -0.2076,-0.1383 -0.5362,-0.242 -0.9859,-0.3112 -0.2594,-0.0345 -1.0378,-0.0778 -2.335,-0.1296 v -1.9189 c 2.1448,-0.2247 3.8571,-0.4668 5.137,-0.7261 1.2803,-0.2766 3.0013,-0.752 5.1633,-1.4262 l 0.544,0.3112 -0.207,5.238 c -0.087,2.9389 -0.138,6.5433 -0.156,10.8132 v 6.6383 c 0,2.5067 0.018,4.3823 0.052,5.627 0.069,3.0944 0.121,4.9701 0.156,5.627 0.034,0.6396 0.095,1.0459 0.181,1.2188 0.052,0.121 0.139,0.2247 0.26,0.3111 0.156,0.121 0.424,0.2161 0.804,0.2853 0.156,0.0345 1.038,0.0951 2.646,0.1815 z"
       fill="#090909"
       id="path12" />
    <path
       d="m 135.184,54.234 v 1.9449 c -1.989,-0.0865 -3.753,-0.1297 -5.293,-0.1297 -1.453,0 -2.862,0.0432 -4.229,0.1297 l -0.233,-0.2853 0.233,-3.3969 c -0.622,0.3976 -2.456,1.7633 -5.5,4.0971 -0.778,0.1728 -1.522,0.2593 -2.231,0.2593 -1.885,0 -3.364,-0.5532 -4.437,-1.6596 -1.055,-1.1064 -1.582,-2.6968 -1.582,-4.7713 0,-1.4003 0.233,-2.5499 0.7,-3.4488 0.485,-0.8989 0.995,-1.5559 1.531,-1.9707 0.553,-0.4322 1.401,-0.8471 2.543,-1.2447 2.732,-0.9681 5.725,-1.7288 8.976,-2.2819 0.035,-2.0572 -0.389,-3.6217 -1.271,-4.6935 -0.899,-1.0718 -2.266,-1.6077 -4.099,-1.6077 -0.744,0 -1.453,0.095 -2.128,0.2852 -0.294,0.0864 -0.64,0.2593 -1.037,0.5186 l -1.09,2.619 -1.764,-0.3889 0.155,-3.3451 c 1.28,-0.8644 2.5,-1.6164 3.659,-2.256 1.158,-0.6396 1.971,-1.0286 2.438,-1.1669 0.64,-0.1901 1.54,-0.2852 2.699,-0.2852 1.885,0 3.433,0.2766 4.644,0.8298 1.228,0.5359 2.127,1.1755 2.698,1.9188 0.588,0.7434 0.986,1.5386 1.193,2.3857 0.225,0.8471 0.337,1.9189 0.337,3.2154 0,0.5532 -0.043,1.9967 -0.129,4.3305 -0.052,1.5558 -0.078,2.8264 -0.078,3.8118 0,3.0771 0.086,4.9442 0.259,5.6011 0.07,0.3111 0.208,0.5186 0.416,0.6223 0.276,0.1383 1.15,0.2593 2.62,0.363 z m -9.522,-10.5798 c -1.47,0.3112 -2.819,0.6915 -4.047,1.141 -1.211,0.4322 -2.05,0.9767 -2.517,1.6337 -0.467,0.6396 -0.7,1.4521 -0.7,2.4375 0,1.1063 0.277,1.9621 0.83,2.5671 0.571,0.6051 1.315,0.9076 2.231,0.9076 0.779,0 1.557,-0.2247 2.335,-0.6742 0.796,-0.4495 1.419,-1.02 1.868,-1.7115 z"
       fill="#000000"
       id="path13" />
    <path
       d="m 135.184,54.234 v 1.9449 c -1.989,-0.0865 -3.753,-0.1297 -5.293,-0.1297 -1.453,0 -2.862,0.0432 -4.229,0.1297 l -0.233,-0.2853 0.233,-3.3969 c -0.622,0.3976 -2.456,1.7633 -5.5,4.0971 -0.778,0.1728 -1.522,0.2593 -2.231,0.2593 -1.885,0 -3.364,-0.5532 -4.437,-1.6596 -1.055,-1.1064 -1.582,-2.6968 -1.582,-4.7713 0,-1.4003 0.233,-2.5499 0.7,-3.4488 0.485,-0.8989 0.995,-1.5559 1.531,-1.9707 0.553,-0.4322 1.401,-0.8471 2.543,-1.2447 2.732,-0.9681 5.725,-1.7288 8.976,-2.2819 0.035,-2.0572 -0.389,-3.6217 -1.271,-4.6935 -0.899,-1.0718 -2.266,-1.6077 -4.099,-1.6077 -0.744,0 -1.453,0.095 -2.128,0.2852 -0.294,0.0864 -0.64,0.2593 -1.037,0.5186 l -1.09,2.619 -1.764,-0.3889 0.155,-3.3451 c 1.28,-0.8644 2.5,-1.6164 3.659,-2.256 1.158,-0.6396 1.971,-1.0286 2.438,-1.1669 0.64,-0.1901 1.54,-0.2852 2.699,-0.2852 1.885,0 3.433,0.2766 4.644,0.8298 1.228,0.5359 2.127,1.1755 2.698,1.9188 0.588,0.7434 0.986,1.5386 1.193,2.3857 0.225,0.8471 0.337,1.9189 0.337,3.2154 0,0.5532 -0.043,1.9967 -0.129,4.3305 -0.052,1.5558 -0.078,2.8264 -0.078,3.8118 0,3.0771 0.086,4.9442 0.259,5.6011 0.07,0.3111 0.208,0.5186 0.416,0.6223 0.276,0.1383 1.15,0.2593 2.62,0.363 z m -9.522,-10.5798 c -1.47,0.3112 -2.819,0.6915 -4.047,1.141 -1.211,0.4322 -2.05,0.9767 -2.517,1.6337 -0.467,0.6396 -0.7,1.4521 -0.7,2.4375 0,1.1063 0.277,1.9621 0.83,2.5671 0.571,0.6051 1.315,0.9076 2.231,0.9076 0.779,0 1.557,-0.2247 2.335,-0.6742 0.796,-0.4495 1.419,-1.02 1.868,-1.7115 z"
       fill="#faf5f5"
       id="path14" />
    <path
       d="m 135.184,54.234 v 1.9449 c -1.989,-0.0865 -3.753,-0.1297 -5.293,-0.1297 -1.453,0 -2.862,0.0432 -4.229,0.1297 l -0.233,-0.2853 0.233,-3.3969 c -0.622,0.3976 -2.456,1.7633 -5.5,4.0971 -0.778,0.1728 -1.522,0.2593 -2.231,0.2593 -1.885,0 -3.364,-0.5532 -4.437,-1.6596 -1.055,-1.1064 -1.582,-2.6968 -1.582,-4.7713 0,-1.4003 0.233,-2.5499 0.7,-3.4488 0.485,-0.8989 0.995,-1.5559 1.531,-1.9707 0.553,-0.4322 1.401,-0.8471 2.543,-1.2447 2.732,-0.9681 5.725,-1.7288 8.976,-2.2819 0.035,-2.0572 -0.389,-3.6217 -1.271,-4.6935 -0.899,-1.0718 -2.266,-1.6077 -4.099,-1.6077 -0.744,0 -1.453,0.095 -2.128,0.2852 -0.294,0.0864 -0.64,0.2593 -1.037,0.5186 l -1.09,2.619 -1.764,-0.3889 0.155,-3.3451 c 1.28,-0.8644 2.5,-1.6164 3.659,-2.256 1.158,-0.6396 1.971,-1.0286 2.438,-1.1669 0.64,-0.1901 1.54,-0.2852 2.699,-0.2852 1.885,0 3.433,0.2766 4.644,0.8298 1.228,0.5359 2.127,1.1755 2.698,1.9188 0.588,0.7434 0.986,1.5386 1.193,2.3857 0.225,0.8471 0.337,1.9189 0.337,3.2154 0,0.5532 -0.043,1.9967 -0.129,4.3305 -0.052,1.5558 -0.078,2.8264 -0.078,3.8118 0,3.0771 0.086,4.9442 0.259,5.6011 0.07,0.3111 0.208,0.5186 0.416,0.6223 0.276,0.1383 1.15,0.2593 2.62,0.363 z m -9.522,-10.5798 c -1.47,0.3112 -2.819,0.6915 -4.047,1.141 -1.211,0.4322 -2.05,0.9767 -2.517,1.6337 -0.467,0.6396 -0.7,1.4521 -0.7,2.4375 0,1.1063 0.277,1.9621 0.83,2.5671 0.571,0.6051 1.315,0.9076 2.231,0.9076 0.779,0 1.557,-0.2247 2.335,-0.6742 0.796,-0.4495 1.419,-1.02 1.868,-1.7115 z"
       fill="#090909"
       id="path15" />
    <path
       d="m 158.741,52.756 -1.141,2.5153 c -1.488,0.7433 -2.698,1.2274 -3.632,1.4521 -0.917,0.242 -2.024,0.363 -3.321,0.363 -2.837,0 -5.137,-0.5532 -6.901,-1.6595 -1.765,-1.1064 -3.105,-2.6882 -4.022,-4.7454 -0.657,-1.4521 -0.986,-3.3883 -0.986,-5.8085 0,-1.8152 0.173,-3.3019 0.519,-4.4601 0.346,-1.1583 0.839,-2.1782 1.479,-3.0598 0.432,-0.5878 1.012,-1.141 1.738,-1.6596 l 3.996,-2.5153 c 1.349,-0.8644 2.274,-1.383 2.776,-1.5559 0.83,-0.3111 1.911,-0.4667 3.243,-0.4667 1.107,0 2.136,0.0951 3.087,0.2852 0.969,0.1729 1.86,0.4408 2.673,0.8039 l 0.259,0.4408 -0.649,4.2267 c -0.052,0.3803 -0.138,1.5732 -0.259,3.5785 h -2.024 c -0.104,-1.5386 -0.233,-2.6795 -0.389,-3.4229 -0.363,-0.5878 -0.925,-1.0632 -1.686,-1.4262 -0.761,-0.3803 -1.695,-0.5705 -2.802,-0.5705 -1.315,0 -2.361,0.2421 -3.14,0.7261 -0.778,0.484 -1.349,1.2965 -1.712,2.4375 -0.363,1.141 -0.545,2.5239 -0.545,4.1489 0,2.1782 0.372,4.1317 1.116,5.8604 0.744,1.7114 1.721,2.9734 2.932,3.7859 1.228,0.7952 2.732,1.1928 4.514,1.1928 0.813,0 1.583,-0.0864 2.309,-0.2593 0.726,-0.1901 1.418,-0.4581 2.076,-0.8038 z"
       fill="#000000"
       id="path16" />
    <path
       d="m 158.741,52.756 -1.141,2.5153 c -1.488,0.7433 -2.698,1.2274 -3.632,1.4521 -0.917,0.242 -2.024,0.363 -3.321,0.363 -2.837,0 -5.137,-0.5532 -6.901,-1.6595 -1.765,-1.1064 -3.105,-2.6882 -4.022,-4.7454 -0.657,-1.4521 -0.986,-3.3883 -0.986,-5.8085 0,-1.8152 0.173,-3.3019 0.519,-4.4601 0.346,-1.1583 0.839,-2.1782 1.479,-3.0598 0.432,-0.5878 1.012,-1.141 1.738,-1.6596 l 3.996,-2.5153 c 1.349,-0.8644 2.274,-1.383 2.776,-1.5559 0.83,-0.3111 1.911,-0.4667 3.243,-0.4667 1.107,0 2.136,0.0951 3.087,0.2852 0.969,0.1729 1.86,0.4408 2.673,0.8039 l 0.259,0.4408 -0.649,4.2267 c -0.052,0.3803 -0.138,1.5732 -0.259,3.5785 h -2.024 c -0.104,-1.5386 -0.233,-2.6795 -0.389,-3.4229 -0.363,-0.5878 -0.925,-1.0632 -1.686,-1.4262 -0.761,-0.3803 -1.695,-0.5705 -2.802,-0.5705 -1.315,0 -2.361,0.2421 -3.14,0.7261 -0.778,0.484 -1.349,1.2965 -1.712,2.4375 -0.363,1.141 -0.545,2.5239 -0.545,4.1489 0,2.1782 0.372,4.1317 1.116,5.8604 0.744,1.7114 1.721,2.9734 2.932,3.7859 1.228,0.7952 2.732,1.1928 4.514,1.1928 0.813,0 1.583,-0.0864 2.309,-0.2593 0.726,-0.1901 1.418,-0.4581 2.076,-0.8038 z"
       fill="#faf5f5"
       id="path17" />
    <path
       d="m 158.741,52.756 -1.141,2.5153 c -1.488,0.7433 -2.698,1.2274 -3.632,1.4521 -0.917,0.242 -2.024,0.363 -3.321,0.363 -2.837,0 -5.137,-0.5532 -6.901,-1.6595 -1.765,-1.1064 -3.105,-2.6882 -4.022,-4.7454 -0.657,-1.4521 -0.986,-3.3883 -0.986,-5.8085 0,-1.8152 0.173,-3.3019 0.519,-4.4601 0.346,-1.1583 0.839,-2.1782 1.479,-3.0598 0.432,-0.5878 1.012,-1.141 1.738,-1.6596 l 3.996,-2.5153 c 1.349,-0.8644 2.274,-1.383 2.776,-1.5559 0.83,-0.3111 1.911,-0.4667 3.243,-0.4667 1.107,0 2.136,0.0951 3.087,0.2852 0.969,0.1729 1.86,0.4408 2.673,0.8039 l 0.259,0.4408 -0.649,4.2267 c -0.052,0.3803 -0.138,1.5732 -0.259,3.5785 h -2.024 c -0.104,-1.5386 -0.233,-2.6795 -0.389,-3.4229 -0.363,-0.5878 -0.925,-1.0632 -1.686,-1.4262 -0.761,-0.3803 -1.695,-0.5705 -2.802,-0.5705 -1.315,0 -2.361,0.2421 -3.14,0.7261 -0.778,0.484 -1.349,1.2965 -1.712,2.4375 -0.363,1.141 -0.545,2.5239 -0.545,4.1489 0,2.1782 0.372,4.1317 1.116,5.8604 0.744,1.7114 1.721,2.9734 2.932,3.7859 1.228,0.7952 2.732,1.1928 4.514,1.1928 0.813,0 1.583,-0.0864 2.309,-0.2593 0.726,-0.1901 1.418,-0.4581 2.076,-0.8038 z"
       fill="#090909"
       id="path18" />
    <path
       d="m 191.924,54.1044 v 2.0745 c -0.726,-0.0519 -2.239,-0.0778 -4.54,-0.0778 -2.404,0 -3.909,0.0259 -4.514,0.0778 -0.9,-1.5213 -2.733,-3.8465 -5.5,-6.9754 -2.751,-3.1463 -4.307,-4.8578 -4.67,-5.1344 -0.121,-0.1037 -0.312,-0.1642 -0.571,-0.1815 v 2.5413 c 0,1.2619 0.052,2.9647 0.155,5.1083 0.052,0.9681 0.122,1.5559 0.208,1.7633 0.052,0.1383 0.147,0.2507 0.285,0.3371 0.191,0.1383 0.519,0.2421 0.986,0.3112 0.208,0.0346 1.021,0.0864 2.439,0.1556 v 2.0745 c -2.11,-0.1211 -4.419,-0.1816 -6.927,-0.1816 -2.681,0 -5.172,0.0605 -7.472,0.1816 v -2.0745 c 1.522,-0.0692 2.413,-0.1297 2.672,-0.1815 0.277,-0.0692 0.484,-0.1643 0.623,-0.2853 0.138,-0.1383 0.233,-0.3111 0.285,-0.5186 0.139,-0.5186 0.225,-1.9275 0.26,-4.2267 0.069,-3.129 0.103,-5.8258 0.103,-8.0904 v -8.4016 c 0,-2.7833 -0.069,-5.3072 -0.207,-7.5719 -0.052,-1.1582 -0.13,-1.8411 -0.234,-2.0485 -0.069,-0.121 -0.164,-0.2161 -0.285,-0.2852 -0.208,-0.121 -0.528,-0.2161 -0.96,-0.2853 -0.294,-0.0518 -1.046,-0.1037 -2.257,-0.1556 V 20.135 c 2.439,-0.2939 4.203,-0.5619 5.293,-0.8039 1.107,-0.242 2.689,-0.6915 4.747,-1.3484 l 0.571,0.3112 -0.181,5.627 c -0.07,3.1117 -0.104,6.2407 -0.104,9.3869 v 9.4389 c 0.553,-0.4149 1.193,-0.9508 1.92,-1.6077 1.522,-1.383 2.784,-2.5586 3.788,-3.5266 0.363,-0.3804 1.003,-1.02 1.919,-1.9189 0.917,-0.899 1.687,-1.7115 2.31,-2.4375 v -1.4522 c 1.556,0.0346 3.13,0.0433 4.721,0.026 0.692,0 1.851,-0.0087 3.477,-0.026 v 2.0227 l -2.724,0.1815 c -0.294,0.0345 -0.58,0.121 -0.856,0.2593 -0.519,0.2593 -1.324,0.8211 -2.413,1.6855 -1.522,1.2101 -2.439,1.9621 -2.75,2.256 -0.312,0.2939 -0.554,0.5186 -0.727,0.6742 l -2.205,1.9189 c 1.522,1.7978 4.099,4.7539 7.731,8.8683 2.041,2.3338 3.382,3.6822 4.022,4.0452 0.363,0.2075 0.891,0.3371 1.582,0.389 z"
       fill="#000000"
       id="path19" />
    <path
       d="m 191.924,54.1044 v 2.0745 c -0.726,-0.0519 -2.239,-0.0778 -4.54,-0.0778 -2.404,0 -3.909,0.0259 -4.514,0.0778 -0.9,-1.5213 -2.733,-3.8465 -5.5,-6.9754 -2.751,-3.1463 -4.307,-4.8578 -4.67,-5.1344 -0.121,-0.1037 -0.312,-0.1642 -0.571,-0.1815 v 2.5413 c 0,1.2619 0.052,2.9647 0.155,5.1083 0.052,0.9681 0.122,1.5559 0.208,1.7633 0.052,0.1383 0.147,0.2507 0.285,0.3371 0.191,0.1383 0.519,0.2421 0.986,0.3112 0.208,0.0346 1.021,0.0864 2.439,0.1556 v 2.0745 c -2.11,-0.1211 -4.419,-0.1816 -6.927,-0.1816 -2.681,0 -5.172,0.0605 -7.472,0.1816 v -2.0745 c 1.522,-0.0692 2.413,-0.1297 2.672,-0.1815 0.277,-0.0692 0.484,-0.1643 0.623,-0.2853 0.138,-0.1383 0.233,-0.3111 0.285,-0.5186 0.139,-0.5186 0.225,-1.9275 0.26,-4.2267 0.069,-3.129 0.103,-5.8258 0.103,-8.0904 v -8.4016 c 0,-2.7833 -0.069,-5.3072 -0.207,-7.5719 -0.052,-1.1582 -0.13,-1.8411 -0.234,-2.0485 -0.069,-0.121 -0.164,-0.2161 -0.285,-0.2852 -0.208,-0.121 -0.528,-0.2161 -0.96,-0.2853 -0.294,-0.0518 -1.046,-0.1037 -2.257,-0.1556 V 20.135 c 2.439,-0.2939 4.203,-0.5619 5.293,-0.8039 1.107,-0.242 2.689,-0.6915 4.747,-1.3484 l 0.571,0.3112 -0.181,5.627 c -0.07,3.1117 -0.104,6.2407 -0.104,9.3869 v 9.4389 c 0.553,-0.4149 1.193,-0.9508 1.92,-1.6077 1.522,-1.383 2.784,-2.5586 3.788,-3.5266 0.363,-0.3804 1.003,-1.02 1.919,-1.9189 0.917,-0.899 1.687,-1.7115 2.31,-2.4375 v -1.4522 c 1.556,0.0346 3.13,0.0433 4.721,0.026 0.692,0 1.851,-0.0087 3.477,-0.026 v 2.0227 l -2.724,0.1815 c -0.294,0.0345 -0.58,0.121 -0.856,0.2593 -0.519,0.2593 -1.324,0.8211 -2.413,1.6855 -1.522,1.2101 -2.439,1.9621 -2.75,2.256 -0.312,0.2939 -0.554,0.5186 -0.727,0.6742 l -2.205,1.9189 c 1.522,1.7978 4.099,4.7539 7.731,8.8683 2.041,2.3338 3.382,3.6822 4.022,4.0452 0.363,0.2075 0.891,0.3371 1.582,0.389 z"
       fill="#faf5f5"
       id="path20" />
    <path
       d="m 191.924,54.1044 v 2.0745 c -0.726,-0.0519 -2.239,-0.0778 -4.54,-0.0778 -2.404,0 -3.909,0.0259 -4.514,0.0778 -0.9,-1.5213 -2.733,-3.8465 -5.5,-6.9754 -2.751,-3.1463 -4.307,-4.8578 -4.67,-5.1344 -0.121,-0.1037 -0.312,-0.1642 -0.571,-0.1815 v 2.5413 c 0,1.2619 0.052,2.9647 0.155,5.1083 0.052,0.9681 0.122,1.5559 0.208,1.7633 0.052,0.1383 0.147,0.2507 0.285,0.3371 0.191,0.1383 0.519,0.2421 0.986,0.3112 0.208,0.0346 1.021,0.0864 2.439,0.1556 v 2.0745 c -2.11,-0.1211 -4.419,-0.1816 -6.927,-0.1816 -2.681,0 -5.172,0.0605 -7.472,0.1816 v -2.0745 c 1.522,-0.0692 2.413,-0.1297 2.672,-0.1815 0.277,-0.0692 0.484,-0.1643 0.623,-0.2853 0.138,-0.1383 0.233,-0.3111 0.285,-0.5186 0.139,-0.5186 0.225,-1.9275 0.26,-4.2267 0.069,-3.129 0.103,-5.8258 0.103,-8.0904 v -8.4016 c 0,-2.7833 -0.069,-5.3072 -0.207,-7.5719 -0.052,-1.1582 -0.13,-1.8411 -0.234,-2.0485 -0.069,-0.121 -0.164,-0.2161 -0.285,-0.2852 -0.208,-0.121 -0.528,-0.2161 -0.96,-0.2853 -0.294,-0.0518 -1.046,-0.1037 -2.257,-0.1556 V 20.135 c 2.439,-0.2939 4.203,-0.5619 5.293,-0.8039 1.107,-0.242 2.689,-0.6915 4.747,-1.3484 l 0.571,0.3112 -0.181,5.627 c -0.07,3.1117 -0.104,6.2407 -0.104,9.3869 v 9.4389 c 0.553,-0.4149 1.193,-0.9508 1.92,-1.6077 1.522,-1.383 2.784,-2.5586 3.788,-3.5266 0.363,-0.3804 1.003,-1.02 1.919,-1.9189 0.917,-0.899 1.687,-1.7115 2.31,-2.4375 v -1.4522 c 1.556,0.0346 3.13,0.0433 4.721,0.026 0.692,0 1.851,-0.0087 3.477,-0.026 v 2.0227 l -2.724,0.1815 c -0.294,0.0345 -0.58,0.121 -0.856,0.2593 -0.519,0.2593 -1.324,0.8211 -2.413,1.6855 -1.522,1.2101 -2.439,1.9621 -2.75,2.256 -0.312,0.2939 -0.554,0.5186 -0.727,0.6742 l -2.205,1.9189 c 1.522,1.7978 4.099,4.7539 7.731,8.8683 2.041,2.3338 3.382,3.6822 4.022,4.0452 0.363,0.2075 0.891,0.3371 1.582,0.389 z"
       fill="#090909"
       id="path21" />
    <path
       d="m 197.632,50.137 3.606,-2.6191 c -1.279,-0.4667 -2.309,-1.0026 -3.087,-1.6077 -0.761,-0.6223 -1.375,-1.4348 -1.842,-2.4375 -0.45,-1.0026 -0.675,-2.109 -0.675,-3.3191 0,-1.6423 0.424,-3.1722 1.272,-4.5898 0.847,-1.4348 2.17,-2.5758 3.969,-3.4229 1.816,-0.847 3.935,-1.2706 6.357,-1.2706 1.625,0 3.122,0.1902 4.488,0.5705 1.384,0.363 2.543,0.9076 3.477,1.6337 1.003,0.0518 1.695,0.0777 2.075,0.0777 0.519,0 1.929,-0.0518 4.229,-0.1555 l -0.363,3.1895 h -4.099 c 0.225,0.8643 0.337,1.7028 0.337,2.5153 0,1.8497 -0.493,3.4833 -1.479,4.9009 -0.986,1.4175 -2.378,2.5066 -4.177,3.2673 -1.781,0.7606 -3.675,1.1409 -5.682,1.1409 -0.536,0 -1.288,-0.0432 -2.257,-0.1296 -0.536,0.3112 -0.943,0.6828 -1.219,1.115 -0.277,0.4149 -0.415,0.8039 -0.415,1.1669 0,0.3112 0.112,0.605 0.337,0.8816 0.242,0.2766 0.571,0.4582 0.986,0.5446 0.57,0.121 1.997,0.1815 4.281,0.1815 l 6.382,-0.1556 c 1.868,0 3.312,0.2161 4.333,0.6483 1.02,0.4322 1.781,1.0891 2.283,1.9707 0.501,0.8817 0.752,2.0486 0.752,3.5007 0,2.1609 -0.51,4.1144 -1.531,5.8604 -1.02,1.746 -2.551,3.1808 -4.592,4.3045 -2.577,1.4003 -5.647,2.1004 -9.21,2.1004 -2.802,0 -5.085,-0.389 -6.849,-1.1669 -1.765,-0.7779 -3.001,-1.7028 -3.71,-2.7746 -0.71,-1.0718 -1.064,-2.2387 -1.064,-3.5007 0,-0.726 0.112,-1.3829 0.337,-1.9707 0.225,-0.5878 0.484,-1.0286 0.778,-1.3225 0.294,-0.2939 0.874,-0.6915 1.739,-1.1928 1.66,-0.9335 2.585,-1.4435 2.776,-1.5299 -0.934,-0.1037 -1.773,-0.4408 -2.517,-1.0113 -0.674,-0.6224 -1.012,-1.3311 -1.012,-2.1263 0,-0.4322 0.087,-0.9163 0.26,-1.4522 0.242,-0.7606 0.484,-1.3657 0.726,-1.8151 z m 4.515,-11.1762 c 0,2.3856 0.415,4.0884 1.245,5.1083 0.83,1.02 1.911,1.53 3.243,1.53 1.47,0 2.594,-0.5964 3.373,-1.7893 0.553,-0.8643 0.83,-2.1609 0.83,-3.8896 0,-2.4202 -0.389,-4.1144 -1.168,-5.0824 -0.778,-0.9681 -1.859,-1.4522 -3.243,-1.4522 -1.314,0 -2.361,0.4409 -3.139,1.3225 -0.761,0.8816 -1.141,2.2992 -1.141,4.2527 z m 0.908,17.8404 c -1.419,0.8989 -2.37,1.7201 -2.854,2.4634 -0.467,0.7607 -0.701,1.6077 -0.701,2.5413 0,1.5731 0.64,2.8869 1.92,3.9414 1.297,1.0546 3.234,1.5818 5.812,1.5818 2.698,0 4.756,-0.631 6.174,-1.8929 1.436,-1.262 2.154,-2.8611 2.154,-4.7972 0,-0.9335 -0.147,-1.651 -0.441,-2.1523 -0.277,-0.484 -0.675,-0.873 -1.194,-1.1669 -0.519,-0.2766 -1.236,-0.4408 -2.153,-0.4927 -0.917,-0.0345 -3.036,-0.0518 -6.356,-0.0518 -0.606,0 -1.393,0.0086 -2.361,0.0259 z"
       fill="#000000"
       id="path22" />
    <path
       d="m 197.632,50.137 3.606,-2.6191 c -1.279,-0.4667 -2.309,-1.0026 -3.087,-1.6077 -0.761,-0.6223 -1.375,-1.4348 -1.842,-2.4375 -0.45,-1.0026 -0.675,-2.109 -0.675,-3.3191 0,-1.6423 0.424,-3.1722 1.272,-4.5898 0.847,-1.4348 2.17,-2.5758 3.969,-3.4229 1.816,-0.847 3.935,-1.2706 6.357,-1.2706 1.625,0 3.122,0.1902 4.488,0.5705 1.384,0.363 2.543,0.9076 3.477,1.6337 1.003,0.0518 1.695,0.0777 2.075,0.0777 0.519,0 1.929,-0.0518 4.229,-0.1555 l -0.363,3.1895 h -4.099 c 0.225,0.8643 0.337,1.7028 0.337,2.5153 0,1.8497 -0.493,3.4833 -1.479,4.9009 -0.986,1.4175 -2.378,2.5066 -4.177,3.2673 -1.781,0.7606 -3.675,1.1409 -5.682,1.1409 -0.536,0 -1.288,-0.0432 -2.257,-0.1296 -0.536,0.3112 -0.943,0.6828 -1.219,1.115 -0.277,0.4149 -0.415,0.8039 -0.415,1.1669 0,0.3112 0.112,0.605 0.337,0.8816 0.242,0.2766 0.571,0.4582 0.986,0.5446 0.57,0.121 1.997,0.1815 4.281,0.1815 l 6.382,-0.1556 c 1.868,0 3.312,0.2161 4.333,0.6483 1.02,0.4322 1.781,1.0891 2.283,1.9707 0.501,0.8817 0.752,2.0486 0.752,3.5007 0,2.1609 -0.51,4.1144 -1.531,5.8604 -1.02,1.746 -2.551,3.1808 -4.592,4.3045 -2.577,1.4003 -5.647,2.1004 -9.21,2.1004 -2.802,0 -5.085,-0.389 -6.849,-1.1669 -1.765,-0.7779 -3.001,-1.7028 -3.71,-2.7746 -0.71,-1.0718 -1.064,-2.2387 -1.064,-3.5007 0,-0.726 0.112,-1.3829 0.337,-1.9707 0.225,-0.5878 0.484,-1.0286 0.778,-1.3225 0.294,-0.2939 0.874,-0.6915 1.739,-1.1928 1.66,-0.9335 2.585,-1.4435 2.776,-1.5299 -0.934,-0.1037 -1.773,-0.4408 -2.517,-1.0113 -0.674,-0.6224 -1.012,-1.3311 -1.012,-2.1263 0,-0.4322 0.087,-0.9163 0.26,-1.4522 0.242,-0.7606 0.484,-1.3657 0.726,-1.8151 z m 4.515,-11.1762 c 0,2.3856 0.415,4.0884 1.245,5.1083 0.83,1.02 1.911,1.53 3.243,1.53 1.47,0 2.594,-0.5964 3.373,-1.7893 0.553,-0.8643 0.83,-2.1609 0.83,-3.8896 0,-2.4202 -0.389,-4.1144 -1.168,-5.0824 -0.778,-0.9681 -1.859,-1.4522 -3.243,-1.4522 -1.314,0 -2.361,0.4409 -3.139,1.3225 -0.761,0.8816 -1.141,2.2992 -1.141,4.2527 z m 0.908,17.8404 c -1.419,0.8989 -2.37,1.7201 -2.854,2.4634 -0.467,0.7607 -0.701,1.6077 -0.701,2.5413 0,1.5731 0.64,2.8869 1.92,3.9414 1.297,1.0546 3.234,1.5818 5.812,1.5818 2.698,0 4.756,-0.631 6.174,-1.8929 1.436,-1.262 2.154,-2.8611 2.154,-4.7972 0,-0.9335 -0.147,-1.651 -0.441,-2.1523 -0.277,-0.484 -0.675,-0.873 -1.194,-1.1669 -0.519,-0.2766 -1.236,-0.4408 -2.153,-0.4927 -0.917,-0.0345 -3.036,-0.0518 -6.356,-0.0518 -0.606,0 -1.393,0.0086 -2.361,0.0259 z"
       fill="#faf5f5"
       id="path23" />
    <path
       d="m 197.632,50.137 3.606,-2.6191 c -1.279,-0.4667 -2.309,-1.0026 -3.087,-1.6077 -0.761,-0.6223 -1.375,-1.4348 -1.842,-2.4375 -0.45,-1.0026 -0.675,-2.109 -0.675,-3.3191 0,-1.6423 0.424,-3.1722 1.272,-4.5898 0.847,-1.4348 2.17,-2.5758 3.969,-3.4229 1.816,-0.847 3.935,-1.2706 6.357,-1.2706 1.625,0 3.122,0.1902 4.488,0.5705 1.384,0.363 2.543,0.9076 3.477,1.6337 1.003,0.0518 1.695,0.0777 2.075,0.0777 0.519,0 1.929,-0.0518 4.229,-0.1555 l -0.363,3.1895 h -4.099 c 0.225,0.8643 0.337,1.7028 0.337,2.5153 0,1.8497 -0.493,3.4833 -1.479,4.9009 -0.986,1.4175 -2.378,2.5066 -4.177,3.2673 -1.781,0.7606 -3.675,1.1409 -5.682,1.1409 -0.536,0 -1.288,-0.0432 -2.257,-0.1296 -0.536,0.3112 -0.943,0.6828 -1.219,1.115 -0.277,0.4149 -0.415,0.8039 -0.415,1.1669 0,0.3112 0.112,0.605 0.337,0.8816 0.242,0.2766 0.571,0.4582 0.986,0.5446 0.57,0.121 1.997,0.1815 4.281,0.1815 l 6.382,-0.1556 c 1.868,0 3.312,0.2161 4.333,0.6483 1.02,0.4322 1.781,1.0891 2.283,1.9707 0.501,0.8817 0.752,2.0486 0.752,3.5007 0,2.1609 -0.51,4.1144 -1.531,5.8604 -1.02,1.746 -2.551,3.1808 -4.592,4.3045 -2.577,1.4003 -5.647,2.1004 -9.21,2.1004 -2.802,0 -5.085,-0.389 -6.849,-1.1669 -1.765,-0.7779 -3.001,-1.7028 -3.71,-2.7746 -0.71,-1.0718 -1.064,-2.2387 -1.064,-3.5007 0,-0.726 0.112,-1.3829 0.337,-1.9707 0.225,-0.5878 0.484,-1.0286 0.778,-1.3225 0.294,-0.2939 0.874,-0.6915 1.739,-1.1928 1.66,-0.9335 2.585,-1.4435 2.776,-1.5299 -0.934,-0.1037 -1.773,-0.4408 -2.517,-1.0113 -0.674,-0.6224 -1.012,-1.3311 -1.012,-2.1263 0,-0.4322 0.087,-0.9163 0.26,-1.4522 0.242,-0.7606 0.484,-1.3657 0.726,-1.8151 z m 4.515,-11.1762 c 0,2.3856 0.415,4.0884 1.245,5.1083 0.83,1.02 1.911,1.53 3.243,1.53 1.47,0 2.594,-0.5964 3.373,-1.7893 0.553,-0.8643 0.83,-2.1609 0.83,-3.8896 0,-2.4202 -0.389,-4.1144 -1.168,-5.0824 -0.778,-0.9681 -1.859,-1.4522 -3.243,-1.4522 -1.314,0 -2.361,0.4409 -3.139,1.3225 -0.761,0.8816 -1.141,2.2992 -1.141,4.2527 z m 0.908,17.8404 c -1.419,0.8989 -2.37,1.7201 -2.854,2.4634 -0.467,0.7607 -0.701,1.6077 -0.701,2.5413 0,1.5731 0.64,2.8869 1.92,3.9414 1.297,1.0546 3.234,1.5818 5.812,1.5818 2.698,0 4.756,-0.631 6.174,-1.8929 1.436,-1.262 2.154,-2.8611 2.154,-4.7972 0,-0.9335 -0.147,-1.651 -0.441,-2.1523 -0.277,-0.484 -0.675,-0.873 -1.194,-1.1669 -0.519,-0.2766 -1.236,-0.4408 -2.153,-0.4927 -0.917,-0.0345 -3.036,-0.0518 -6.356,-0.0518 -0.606,0 -1.393,0.0086 -2.361,0.0259 z"
       fill="#fe0606"
       id="path24" />
    <path
       d="m 197.632,50.137 3.606,-2.6191 c -1.279,-0.4667 -2.309,-1.0026 -3.087,-1.6077 -0.761,-0.6223 -1.375,-1.4348 -1.842,-2.4375 -0.45,-1.0026 -0.675,-2.109 -0.675,-3.3191 0,-1.6423 0.424,-3.1722 1.272,-4.5898 0.847,-1.4348 2.17,-2.5758 3.969,-3.4229 1.816,-0.847 3.935,-1.2706 6.357,-1.2706 1.625,0 3.122,0.1902 4.488,0.5705 1.384,0.363 2.543,0.9076 3.477,1.6337 1.003,0.0518 1.695,0.0777 2.075,0.0777 0.519,0 1.929,-0.0518 4.229,-0.1555 l -0.363,3.1895 h -4.099 c 0.225,0.8643 0.337,1.7028 0.337,2.5153 0,1.8497 -0.493,3.4833 -1.479,4.9009 -0.986,1.4175 -2.378,2.5066 -4.177,3.2673 -1.781,0.7606 -3.675,1.1409 -5.682,1.1409 -0.536,0 -1.288,-0.0432 -2.257,-0.1296 -0.536,0.3112 -0.943,0.6828 -1.219,1.115 -0.277,0.4149 -0.415,0.8039 -0.415,1.1669 0,0.3112 0.112,0.605 0.337,0.8816 0.242,0.2766 0.571,0.4582 0.986,0.5446 0.57,0.121 1.997,0.1815 4.281,0.1815 l 6.382,-0.1556 c 1.868,0 3.312,0.2161 4.333,0.6483 1.02,0.4322 1.781,1.0891 2.283,1.9707 0.501,0.8817 0.752,2.0486 0.752,3.5007 0,2.1609 -0.51,4.1144 -1.531,5.8604 -1.02,1.746 -2.551,3.1808 -4.592,4.3045 -2.577,1.4003 -5.647,2.1004 -9.21,2.1004 -2.802,0 -5.085,-0.389 -6.849,-1.1669 -1.765,-0.7779 -3.001,-1.7028 -3.71,-2.7746 -0.71,-1.0718 -1.064,-2.2387 -1.064,-3.5007 0,-0.726 0.112,-1.3829 0.337,-1.9707 0.225,-0.5878 0.484,-1.0286 0.778,-1.3225 0.294,-0.2939 0.874,-0.6915 1.739,-1.1928 1.66,-0.9335 2.585,-1.4435 2.776,-1.5299 -0.934,-0.1037 -1.773,-0.4408 -2.517,-1.0113 -0.674,-0.6224 -1.012,-1.3311 -1.012,-2.1263 0,-0.4322 0.087,-0.9163 0.26,-1.4522 0.242,-0.7606 0.484,-1.3657 0.726,-1.8151 z m 4.515,-11.1762 c 0,2.3856 0.415,4.0884 1.245,5.1083 0.83,1.02 1.911,1.53 3.243,1.53 1.47,0 2.594,-0.5964 3.373,-1.7893 0.553,-0.8643 0.83,-2.1609 0.83,-3.8896 0,-2.4202 -0.389,-4.1144 -1.168,-5.0824 -0.778,-0.9681 -1.859,-1.4522 -3.243,-1.4522 -1.314,0 -2.361,0.4409 -3.139,1.3225 -0.761,0.8816 -1.141,2.2992 -1.141,4.2527 z m 0.908,17.8404 c -1.419,0.8989 -2.37,1.7201 -2.854,2.4634 -0.467,0.7607 -0.701,1.6077 -0.701,2.5413 0,1.5731 0.64,2.8869 1.92,3.9414 1.297,1.0546 3.234,1.5818 5.812,1.5818 2.698,0 4.756,-0.631 6.174,-1.8929 1.436,-1.262 2.154,-2.8611 2.154,-4.7972 0,-0.9335 -0.147,-1.651 -0.441,-2.1523 -0.277,-0.484 -0.675,-0.873 -1.194,-1.1669 -0.519,-0.2766 -1.236,-0.4408 -2.153,-0.4927 -0.917,-0.0345 -3.036,-0.0518 -6.356,-0.0518 -0.606,0 -1.393,0.0086 -2.361,0.0259 z"
       fill="#040404"
       id="path25" />
    <path
       d="m 238.209,54.1044 v 2.0745 c -2.162,-0.1383 -4.419,-0.2075 -6.771,-0.2075 -2.352,0 -4.999,0.0692 -7.939,0.2075 v -2.0486 c 1.643,-0.0518 2.638,-0.121 2.983,-0.2074 0.26,-0.0692 0.45,-0.1643 0.571,-0.2853 0.139,-0.1383 0.234,-0.3457 0.286,-0.6223 0.121,-0.5186 0.207,-2.1523 0.259,-4.9009 0.052,-2.7487 0.078,-5.1862 0.078,-7.3125 v -8.5572 c 0,-2.7141 -0.061,-5.1948 -0.182,-7.4422 -0.069,-1.2101 -0.155,-1.9275 -0.259,-2.1523 -0.069,-0.121 -0.164,-0.216 -0.286,-0.2852 -0.207,-0.1383 -0.536,-0.242 -0.985,-0.3112 -0.26,-0.0345 -1.038,-0.0778 -2.335,-0.1296 v -1.9189 c 2.144,-0.2247 3.857,-0.4668 5.137,-0.7261 1.279,-0.2766 3,-0.752 5.162,-1.4262 l 0.545,0.3112 -0.207,5.238 c -0.087,2.9389 -0.139,6.5433 -0.156,10.8132 v 6.6383 c 0,2.5067 0.017,4.3823 0.052,5.627 0.069,3.0944 0.121,4.9701 0.156,5.627 0.034,0.6396 0.095,1.0459 0.181,1.2188 0.052,0.121 0.139,0.2247 0.26,0.3111 0.155,0.121 0.423,0.2161 0.804,0.2853 0.156,0.0345 1.038,0.0951 2.646,0.1815 z"
       fill="#000000"
       id="path26" />
    <path
       d="m 238.209,54.1044 v 2.0745 c -2.162,-0.1383 -4.419,-0.2075 -6.771,-0.2075 -2.352,0 -4.999,0.0692 -7.939,0.2075 v -2.0486 c 1.643,-0.0518 2.638,-0.121 2.983,-0.2074 0.26,-0.0692 0.45,-0.1643 0.571,-0.2853 0.139,-0.1383 0.234,-0.3457 0.286,-0.6223 0.121,-0.5186 0.207,-2.1523 0.259,-4.9009 0.052,-2.7487 0.078,-5.1862 0.078,-7.3125 v -8.5572 c 0,-2.7141 -0.061,-5.1948 -0.182,-7.4422 -0.069,-1.2101 -0.155,-1.9275 -0.259,-2.1523 -0.069,-0.121 -0.164,-0.216 -0.286,-0.2852 -0.207,-0.1383 -0.536,-0.242 -0.985,-0.3112 -0.26,-0.0345 -1.038,-0.0778 -2.335,-0.1296 v -1.9189 c 2.144,-0.2247 3.857,-0.4668 5.137,-0.7261 1.279,-0.2766 3,-0.752 5.162,-1.4262 l 0.545,0.3112 -0.207,5.238 c -0.087,2.9389 -0.139,6.5433 -0.156,10.8132 v 6.6383 c 0,2.5067 0.017,4.3823 0.052,5.627 0.069,3.0944 0.121,4.9701 0.156,5.627 0.034,0.6396 0.095,1.0459 0.181,1.2188 0.052,0.121 0.139,0.2247 0.26,0.3111 0.155,0.121 0.423,0.2161 0.804,0.2853 0.156,0.0345 1.038,0.0951 2.646,0.1815 z"
       fill="#faf5f5"
       id="path27" />
    <path
       d="m 238.209,54.1044 v 2.0745 c -2.162,-0.1383 -4.419,-0.2075 -6.771,-0.2075 -2.352,0 -4.999,0.0692 -7.939,0.2075 v -2.0486 c 1.643,-0.0518 2.638,-0.121 2.983,-0.2074 0.26,-0.0692 0.45,-0.1643 0.571,-0.2853 0.139,-0.1383 0.234,-0.3457 0.286,-0.6223 0.121,-0.5186 0.207,-2.1523 0.259,-4.9009 0.052,-2.7487 0.078,-5.1862 0.078,-7.3125 v -8.5572 c 0,-2.7141 -0.061,-5.1948 -0.182,-7.4422 -0.069,-1.2101 -0.155,-1.9275 -0.259,-2.1523 -0.069,-0.121 -0.164,-0.216 -0.286,-0.2852 -0.207,-0.1383 -0.536,-0.242 -0.985,-0.3112 -0.26,-0.0345 -1.038,-0.0778 -2.335,-0.1296 v -1.9189 c 2.144,-0.2247 3.857,-0.4668 5.137,-0.7261 1.279,-0.2766 3,-0.752 5.162,-1.4262 l 0.545,0.3112 -0.207,5.238 c -0.087,2.9389 -0.139,6.5433 -0.156,10.8132 v 6.6383 c 0,2.5067 0.017,4.3823 0.052,5.627 0.069,3.0944 0.121,4.9701 0.156,5.627 0.034,0.6396 0.095,1.0459 0.181,1.2188 0.052,0.121 0.139,0.2247 0.26,0.3111 0.155,0.121 0.423,0.2161 0.804,0.2853 0.156,0.0345 1.038,0.0951 2.646,0.1815 z"
       fill="#000000"
       id="path28" />
    <path
       d="m 265.114,54.234 v 1.9449 c -1.989,-0.0865 -3.754,-0.1297 -5.293,-0.1297 -1.453,0 -2.862,0.0432 -4.229,0.1297 l -0.233,-0.2853 0.233,-3.3969 c -0.623,0.3976 -2.456,1.7633 -5.5,4.0971 -0.778,0.1728 -1.522,0.2593 -2.231,0.2593 -1.886,0 -3.364,-0.5532 -4.437,-1.6596 -1.055,-1.1064 -1.582,-2.6968 -1.582,-4.7713 0,-1.4003 0.233,-2.5499 0.7,-3.4488 0.484,-0.8989 0.995,-1.5559 1.531,-1.9707 0.553,-0.4322 1.401,-0.8471 2.542,-1.2447 2.733,-0.9681 5.725,-1.7288 8.977,-2.2819 0.035,-2.0572 -0.389,-3.6217 -1.271,-4.6935 -0.9,-1.0718 -2.266,-1.6077 -4.099,-1.6077 -0.744,0 -1.453,0.095 -2.128,0.2852 -0.294,0.0864 -0.64,0.2593 -1.038,0.5186 l -1.089,2.619 -1.765,-0.3889 0.156,-3.3451 c 1.28,-0.8644 2.499,-1.6164 3.658,-2.256 1.159,-0.6396 1.972,-1.0286 2.439,-1.1669 0.64,-0.1901 1.539,-0.2852 2.698,-0.2852 1.886,0 3.434,0.2766 4.644,0.8298 1.228,0.5359 2.128,1.1755 2.699,1.9188 0.588,0.7434 0.986,1.5386 1.193,2.3857 0.225,0.8471 0.337,1.9189 0.337,3.2154 0,0.5532 -0.043,1.9967 -0.129,4.3305 -0.052,1.5558 -0.078,2.8264 -0.078,3.8118 0,3.0771 0.086,4.9442 0.259,5.6011 0.069,0.3111 0.208,0.5186 0.415,0.6223 0.277,0.1383 1.151,0.2593 2.621,0.363 z m -9.522,-10.5798 c -1.47,0.3112 -2.819,0.6915 -4.047,1.141 -1.211,0.4322 -2.05,0.9767 -2.517,1.6337 -0.467,0.6396 -0.7,1.4521 -0.7,2.4375 0,1.1063 0.276,1.9621 0.83,2.5671 0.571,0.6051 1.314,0.9076 2.231,0.9076 0.778,0 1.557,-0.2247 2.335,-0.6742 0.796,-0.4495 1.418,-1.02 1.868,-1.7115 z"
       fill="#000000"
       id="path29" />
    <path
       d="m 265.114,54.234 v 1.9449 c -1.989,-0.0865 -3.754,-0.1297 -5.293,-0.1297 -1.453,0 -2.862,0.0432 -4.229,0.1297 l -0.233,-0.2853 0.233,-3.3969 c -0.623,0.3976 -2.456,1.7633 -5.5,4.0971 -0.778,0.1728 -1.522,0.2593 -2.231,0.2593 -1.886,0 -3.364,-0.5532 -4.437,-1.6596 -1.055,-1.1064 -1.582,-2.6968 -1.582,-4.7713 0,-1.4003 0.233,-2.5499 0.7,-3.4488 0.484,-0.8989 0.995,-1.5559 1.531,-1.9707 0.553,-0.4322 1.401,-0.8471 2.542,-1.2447 2.733,-0.9681 5.725,-1.7288 8.977,-2.2819 0.035,-2.0572 -0.389,-3.6217 -1.271,-4.6935 -0.9,-1.0718 -2.266,-1.6077 -4.099,-1.6077 -0.744,0 -1.453,0.095 -2.128,0.2852 -0.294,0.0864 -0.64,0.2593 -1.038,0.5186 l -1.089,2.619 -1.765,-0.3889 0.156,-3.3451 c 1.28,-0.8644 2.499,-1.6164 3.658,-2.256 1.159,-0.6396 1.972,-1.0286 2.439,-1.1669 0.64,-0.1901 1.539,-0.2852 2.698,-0.2852 1.886,0 3.434,0.2766 4.644,0.8298 1.228,0.5359 2.128,1.1755 2.699,1.9188 0.588,0.7434 0.986,1.5386 1.193,2.3857 0.225,0.8471 0.337,1.9189 0.337,3.2154 0,0.5532 -0.043,1.9967 -0.129,4.3305 -0.052,1.5558 -0.078,2.8264 -0.078,3.8118 0,3.0771 0.086,4.9442 0.259,5.6011 0.069,0.3111 0.208,0.5186 0.415,0.6223 0.277,0.1383 1.151,0.2593 2.621,0.363 z m -9.522,-10.5798 c -1.47,0.3112 -2.819,0.6915 -4.047,1.141 -1.211,0.4322 -2.05,0.9767 -2.517,1.6337 -0.467,0.6396 -0.7,1.4521 -0.7,2.4375 0,1.1063 0.276,1.9621 0.83,2.5671 0.571,0.6051 1.314,0.9076 2.231,0.9076 0.778,0 1.557,-0.2247 2.335,-0.6742 0.796,-0.4495 1.418,-1.02 1.868,-1.7115 z"
       fill="#faf5f5"
       id="path30" />
    <path
       d="m 265.114,54.234 v 1.9449 c -1.989,-0.0865 -3.754,-0.1297 -5.293,-0.1297 -1.453,0 -2.862,0.0432 -4.229,0.1297 l -0.233,-0.2853 0.233,-3.3969 c -0.623,0.3976 -2.456,1.7633 -5.5,4.0971 -0.778,0.1728 -1.522,0.2593 -2.231,0.2593 -1.886,0 -3.364,-0.5532 -4.437,-1.6596 -1.055,-1.1064 -1.582,-2.6968 -1.582,-4.7713 0,-1.4003 0.233,-2.5499 0.7,-3.4488 0.484,-0.8989 0.995,-1.5559 1.531,-1.9707 0.553,-0.4322 1.401,-0.8471 2.542,-1.2447 2.733,-0.9681 5.725,-1.7288 8.977,-2.2819 0.035,-2.0572 -0.389,-3.6217 -1.271,-4.6935 -0.9,-1.0718 -2.266,-1.6077 -4.099,-1.6077 -0.744,0 -1.453,0.095 -2.128,0.2852 -0.294,0.0864 -0.64,0.2593 -1.038,0.5186 l -1.089,2.619 -1.765,-0.3889 0.156,-3.3451 c 1.28,-0.8644 2.499,-1.6164 3.658,-2.256 1.159,-0.6396 1.972,-1.0286 2.439,-1.1669 0.64,-0.1901 1.539,-0.2852 2.698,-0.2852 1.886,0 3.434,0.2766 4.644,0.8298 1.228,0.5359 2.128,1.1755 2.699,1.9188 0.588,0.7434 0.986,1.5386 1.193,2.3857 0.225,0.8471 0.337,1.9189 0.337,3.2154 0,0.5532 -0.043,1.9967 -0.129,4.3305 -0.052,1.5558 -0.078,2.8264 -0.078,3.8118 0,3.0771 0.086,4.9442 0.259,5.6011 0.069,0.3111 0.208,0.5186 0.415,0.6223 0.277,0.1383 1.151,0.2593 2.621,0.363 z m -9.522,-10.5798 c -1.47,0.3112 -2.819,0.6915 -4.047,1.141 -1.211,0.4322 -2.05,0.9767 -2.517,1.6337 -0.467,0.6396 -0.7,1.4521 -0.7,2.4375 0,1.1063 0.276,1.9621 0.83,2.5671 0.571,0.6051 1.314,0.9076 2.231,0.9076 0.778,0 1.557,-0.2247 2.335,-0.6742 0.796,-0.4495 1.418,-1.02 1.868,-1.7115 z"
       fill="#000000"
       id="path31" />
    <path
       d="m 269.109,48.0106 h 2.076 c 0.086,1.9362 0.173,3.155 0.259,3.6563 0.779,0.9508 1.635,1.6596 2.569,2.1263 0.934,0.4495 2.006,0.6742 3.217,0.6742 1.626,0 2.871,-0.3889 3.736,-1.1669 0.865,-0.7779 1.297,-1.7201 1.297,-2.8264 0,-0.7261 -0.147,-1.3225 -0.441,-1.7893 -0.277,-0.484 -0.848,-0.9248 -1.712,-1.3224 -0.675,-0.2421 -1.972,-0.5705 -3.892,-0.9854 -1.903,-0.4149 -3.347,-0.873 -4.333,-1.3743 -0.986,-0.5014 -1.755,-1.2447 -2.309,-2.2301 -0.553,-1.0027 -0.83,-2.1695 -0.83,-3.5007 0,-2.3856 0.899,-4.365 2.698,-5.9381 1.799,-1.5905 4.385,-2.3857 7.758,-2.3857 1.401,0 2.689,0.121 3.865,0.3631 1.176,0.242 2.24,0.605 3.191,1.0891 l 0.078,0.2593 c -0.103,0.605 -0.181,1.2187 -0.233,1.8411 -0.052,0.6223 -0.13,2.0917 -0.234,4.4082 l -1.997,-0.0259 c -0.018,-0.1902 -0.044,-0.51 -0.078,-0.9595 -0.052,-0.7779 -0.156,-1.5299 -0.312,-2.256 -0.536,-0.6914 -1.202,-1.2101 -1.997,-1.5558 -0.779,-0.3458 -1.695,-0.5186 -2.75,-0.5186 -1.471,0 -2.612,0.3284 -3.425,0.9853 -0.796,0.657 -1.194,1.4435 -1.194,2.3598 0,0.9335 0.182,1.625 0.545,2.0744 0.364,0.4495 0.9,0.7866 1.609,1.0113 0.709,0.2248 2.015,0.5186 3.917,0.8817 1.92,0.3457 3.209,0.6396 3.866,0.8816 0.951,0.3631 1.713,0.8212 2.283,1.3744 0.571,0.5532 1.003,1.2446 1.298,2.0744 0.311,0.8125 0.467,1.7115 0.467,2.6968 0,2.5758 -1.004,4.7454 -3.01,6.5087 -1.989,1.7633 -4.791,2.6449 -8.406,2.6449 -1.211,0 -2.387,-0.1123 -3.529,-0.3371 -1.141,-0.2074 -2.533,-0.5964 -4.177,-1.1669 l -0.285,-0.3889 c 0.138,-1.3311 0.225,-2.2733 0.259,-2.8265 z"
       fill="#000000"
       id="path32" />
    <path
       d="m 269.109,48.0106 h 2.076 c 0.086,1.9362 0.173,3.155 0.259,3.6563 0.779,0.9508 1.635,1.6596 2.569,2.1263 0.934,0.4495 2.006,0.6742 3.217,0.6742 1.626,0 2.871,-0.3889 3.736,-1.1669 0.865,-0.7779 1.297,-1.7201 1.297,-2.8264 0,-0.7261 -0.147,-1.3225 -0.441,-1.7893 -0.277,-0.484 -0.848,-0.9248 -1.712,-1.3224 -0.675,-0.2421 -1.972,-0.5705 -3.892,-0.9854 -1.903,-0.4149 -3.347,-0.873 -4.333,-1.3743 -0.986,-0.5014 -1.755,-1.2447 -2.309,-2.2301 -0.553,-1.0027 -0.83,-2.1695 -0.83,-3.5007 0,-2.3856 0.899,-4.365 2.698,-5.9381 1.799,-1.5905 4.385,-2.3857 7.758,-2.3857 1.401,0 2.689,0.121 3.865,0.3631 1.176,0.242 2.24,0.605 3.191,1.0891 l 0.078,0.2593 c -0.103,0.605 -0.181,1.2187 -0.233,1.8411 -0.052,0.6223 -0.13,2.0917 -0.234,4.4082 l -1.997,-0.0259 c -0.018,-0.1902 -0.044,-0.51 -0.078,-0.9595 -0.052,-0.7779 -0.156,-1.5299 -0.312,-2.256 -0.536,-0.6914 -1.202,-1.2101 -1.997,-1.5558 -0.779,-0.3458 -1.695,-0.5186 -2.75,-0.5186 -1.471,0 -2.612,0.3284 -3.425,0.9853 -0.796,0.657 -1.194,1.4435 -1.194,2.3598 0,0.9335 0.182,1.625 0.545,2.0744 0.364,0.4495 0.9,0.7866 1.609,1.0113 0.709,0.2248 2.015,0.5186 3.917,0.8817 1.92,0.3457 3.209,0.6396 3.866,0.8816 0.951,0.3631 1.713,0.8212 2.283,1.3744 0.571,0.5532 1.003,1.2446 1.298,2.0744 0.311,0.8125 0.467,1.7115 0.467,2.6968 0,2.5758 -1.004,4.7454 -3.01,6.5087 -1.989,1.7633 -4.791,2.6449 -8.406,2.6449 -1.211,0 -2.387,-0.1123 -3.529,-0.3371 -1.141,-0.2074 -2.533,-0.5964 -4.177,-1.1669 l -0.285,-0.3889 c 0.138,-1.3311 0.225,-2.2733 0.259,-2.8265 z"
       fill="#faf5f5"
       id="path33" />
    <path
       d="m 269.109,48.0106 h 2.076 c 0.086,1.9362 0.173,3.155 0.259,3.6563 0.779,0.9508 1.635,1.6596 2.569,2.1263 0.934,0.4495 2.006,0.6742 3.217,0.6742 1.626,0 2.871,-0.3889 3.736,-1.1669 0.865,-0.7779 1.297,-1.7201 1.297,-2.8264 0,-0.7261 -0.147,-1.3225 -0.441,-1.7893 -0.277,-0.484 -0.848,-0.9248 -1.712,-1.3224 -0.675,-0.2421 -1.972,-0.5705 -3.892,-0.9854 -1.903,-0.4149 -3.347,-0.873 -4.333,-1.3743 -0.986,-0.5014 -1.755,-1.2447 -2.309,-2.2301 -0.553,-1.0027 -0.83,-2.1695 -0.83,-3.5007 0,-2.3856 0.899,-4.365 2.698,-5.9381 1.799,-1.5905 4.385,-2.3857 7.758,-2.3857 1.401,0 2.689,0.121 3.865,0.3631 1.176,0.242 2.24,0.605 3.191,1.0891 l 0.078,0.2593 c -0.103,0.605 -0.181,1.2187 -0.233,1.8411 -0.052,0.6223 -0.13,2.0917 -0.234,4.4082 l -1.997,-0.0259 c -0.018,-0.1902 -0.044,-0.51 -0.078,-0.9595 -0.052,-0.7779 -0.156,-1.5299 -0.312,-2.256 -0.536,-0.6914 -1.202,-1.2101 -1.997,-1.5558 -0.779,-0.3458 -1.695,-0.5186 -2.75,-0.5186 -1.471,0 -2.612,0.3284 -3.425,0.9853 -0.796,0.657 -1.194,1.4435 -1.194,2.3598 0,0.9335 0.182,1.625 0.545,2.0744 0.364,0.4495 0.9,0.7866 1.609,1.0113 0.709,0.2248 2.015,0.5186 3.917,0.8817 1.92,0.3457 3.209,0.6396 3.866,0.8816 0.951,0.3631 1.713,0.8212 2.283,1.3744 0.571,0.5532 1.003,1.2446 1.298,2.0744 0.311,0.8125 0.467,1.7115 0.467,2.6968 0,2.5758 -1.004,4.7454 -3.01,6.5087 -1.989,1.7633 -4.791,2.6449 -8.406,2.6449 -1.211,0 -2.387,-0.1123 -3.529,-0.3371 -1.141,-0.2074 -2.533,-0.5964 -4.177,-1.1669 l -0.285,-0.3889 c 0.138,-1.3311 0.225,-2.2733 0.259,-2.8265 z"
       fill="#000000"
       id="path34" />
    <path
       d="m 292.719,48.0106 h 2.075 c 0.087,1.9362 0.173,3.155 0.26,3.6563 0.778,0.9508 1.634,1.6596 2.568,2.1263 0.934,0.4495 2.007,0.6742 3.217,0.6742 1.626,0 2.871,-0.3889 3.736,-1.1669 0.865,-0.7779 1.297,-1.7201 1.297,-2.8264 0,-0.7261 -0.147,-1.3225 -0.441,-1.7893 -0.276,-0.484 -0.847,-0.9248 -1.712,-1.3224 -0.674,-0.2421 -1.972,-0.5705 -3.892,-0.9854 -1.902,-0.4149 -3.346,-0.873 -4.332,-1.3743 -0.986,-0.5014 -1.756,-1.2447 -2.309,-2.2301 -0.554,-1.0027 -0.831,-2.1695 -0.831,-3.5007 0,-2.3856 0.9,-4.365 2.699,-5.9381 1.798,-1.5905 4.384,-2.3857 7.757,-2.3857 1.401,0 2.69,0.121 3.866,0.3631 1.176,0.242 2.24,0.605 3.191,1.0891 l 0.078,0.2593 c -0.104,0.605 -0.182,1.2187 -0.234,1.8411 -0.052,0.6223 -0.129,2.0917 -0.233,4.4082 l -1.998,-0.0259 c -0.017,-0.1902 -0.043,-0.51 -0.078,-0.9595 -0.052,-0.7779 -0.155,-1.5299 -0.311,-2.256 -0.536,-0.6914 -1.202,-1.2101 -1.998,-1.5558 -0.778,-0.3458 -1.695,-0.5186 -2.75,-0.5186 -1.47,0 -2.612,0.3284 -3.425,0.9853 -0.795,0.657 -1.193,1.4435 -1.193,2.3598 0,0.9335 0.182,1.625 0.545,2.0744 0.363,0.4495 0.899,0.7866 1.608,1.0113 0.709,0.2248 2.015,0.5186 3.918,0.8817 1.92,0.3457 3.208,0.6396 3.866,0.8816 0.951,0.3631 1.712,0.8212 2.283,1.3744 0.571,0.5532 1.003,1.2446 1.297,2.0744 0.311,0.8125 0.467,1.7115 0.467,2.6968 0,2.5758 -1.003,4.7454 -3.01,6.5087 -1.989,1.7633 -4.791,2.6449 -8.406,2.6449 -1.21,0 -2.386,-0.1123 -3.528,-0.3371 -1.142,-0.2074 -2.534,-0.5964 -4.177,-1.1669 l -0.285,-0.3889 c 0.138,-1.3311 0.224,-2.2733 0.259,-2.8265 z"
       fill="#000000"
       id="path35" />
    <path
       d="m 292.719,48.0106 h 2.075 c 0.087,1.9362 0.173,3.155 0.26,3.6563 0.778,0.9508 1.634,1.6596 2.568,2.1263 0.934,0.4495 2.007,0.6742 3.217,0.6742 1.626,0 2.871,-0.3889 3.736,-1.1669 0.865,-0.7779 1.297,-1.7201 1.297,-2.8264 0,-0.7261 -0.147,-1.3225 -0.441,-1.7893 -0.276,-0.484 -0.847,-0.9248 -1.712,-1.3224 -0.674,-0.2421 -1.972,-0.5705 -3.892,-0.9854 -1.902,-0.4149 -3.346,-0.873 -4.332,-1.3743 -0.986,-0.5014 -1.756,-1.2447 -2.309,-2.2301 -0.554,-1.0027 -0.831,-2.1695 -0.831,-3.5007 0,-2.3856 0.9,-4.365 2.699,-5.9381 1.798,-1.5905 4.384,-2.3857 7.757,-2.3857 1.401,0 2.69,0.121 3.866,0.3631 1.176,0.242 2.24,0.605 3.191,1.0891 l 0.078,0.2593 c -0.104,0.605 -0.182,1.2187 -0.234,1.8411 -0.052,0.6223 -0.129,2.0917 -0.233,4.4082 l -1.998,-0.0259 c -0.017,-0.1902 -0.043,-0.51 -0.078,-0.9595 -0.052,-0.7779 -0.155,-1.5299 -0.311,-2.256 -0.536,-0.6914 -1.202,-1.2101 -1.998,-1.5558 -0.778,-0.3458 -1.695,-0.5186 -2.75,-0.5186 -1.47,0 -2.612,0.3284 -3.425,0.9853 -0.795,0.657 -1.193,1.4435 -1.193,2.3598 0,0.9335 0.182,1.625 0.545,2.0744 0.363,0.4495 0.899,0.7866 1.608,1.0113 0.709,0.2248 2.015,0.5186 3.918,0.8817 1.92,0.3457 3.208,0.6396 3.866,0.8816 0.951,0.3631 1.712,0.8212 2.283,1.3744 0.571,0.5532 1.003,1.2446 1.297,2.0744 0.311,0.8125 0.467,1.7115 0.467,2.6968 0,2.5758 -1.003,4.7454 -3.01,6.5087 -1.989,1.7633 -4.791,2.6449 -8.406,2.6449 -1.21,0 -2.386,-0.1123 -3.528,-0.3371 -1.142,-0.2074 -2.534,-0.5964 -4.177,-1.1669 l -0.285,-0.3889 c 0.138,-1.3311 0.224,-2.2733 0.259,-2.8265 z"
       fill="#faf5f5"
       id="path36" />
    <path
       d="m 292.719,48.0106 h 2.075 c 0.087,1.9362 0.173,3.155 0.26,3.6563 0.778,0.9508 1.634,1.6596 2.568,2.1263 0.934,0.4495 2.007,0.6742 3.217,0.6742 1.626,0 2.871,-0.3889 3.736,-1.1669 0.865,-0.7779 1.297,-1.7201 1.297,-2.8264 0,-0.7261 -0.147,-1.3225 -0.441,-1.7893 -0.276,-0.484 -0.847,-0.9248 -1.712,-1.3224 -0.674,-0.2421 -1.972,-0.5705 -3.892,-0.9854 -1.902,-0.4149 -3.346,-0.873 -4.332,-1.3743 -0.986,-0.5014 -1.756,-1.2447 -2.309,-2.2301 -0.554,-1.0027 -0.831,-2.1695 -0.831,-3.5007 0,-2.3856 0.9,-4.365 2.699,-5.9381 1.798,-1.5905 4.384,-2.3857 7.757,-2.3857 1.401,0 2.69,0.121 3.866,0.3631 1.176,0.242 2.24,0.605 3.191,1.0891 l 0.078,0.2593 c -0.104,0.605 -0.182,1.2187 -0.234,1.8411 -0.052,0.6223 -0.129,2.0917 -0.233,4.4082 l -1.998,-0.0259 c -0.017,-0.1902 -0.043,-0.51 -0.078,-0.9595 -0.052,-0.7779 -0.155,-1.5299 -0.311,-2.256 -0.536,-0.6914 -1.202,-1.2101 -1.998,-1.5558 -0.778,-0.3458 -1.695,-0.5186 -2.75,-0.5186 -1.47,0 -2.612,0.3284 -3.425,0.9853 -0.795,0.657 -1.193,1.4435 -1.193,2.3598 0,0.9335 0.182,1.625 0.545,2.0744 0.363,0.4495 0.899,0.7866 1.608,1.0113 0.709,0.2248 2.015,0.5186 3.918,0.8817 1.92,0.3457 3.208,0.6396 3.866,0.8816 0.951,0.3631 1.712,0.8212 2.283,1.3744 0.571,0.5532 1.003,1.2446 1.297,2.0744 0.311,0.8125 0.467,1.7115 0.467,2.6968 0,2.5758 -1.003,4.7454 -3.01,6.5087 -1.989,1.7633 -4.791,2.6449 -8.406,2.6449 -1.21,0 -2.386,-0.1123 -3.528,-0.3371 -1.142,-0.2074 -2.534,-0.5964 -4.177,-1.1669 l -0.285,-0.3889 c 0.138,-1.3311 0.224,-2.2733 0.259,-2.8265 z"
       fill="#000000"
       id="path37" />
  </g>
</svg>
